<svg width="17" height="16" viewBox="0 0 17 16" fill="none" xmlns="http://www.w3.org/2000/svg">
<path d="M7.49934 0.461644C7.88568 -0.139848 8.76482 -0.139848 9.15116 0.461643L11.2977 3.80355C11.4306 4.0105 11.6364 4.16001 11.8743 4.22248L15.7159 5.23123C16.4074 5.41279 16.6791 6.24891 16.2264 6.80221L13.7114 9.87638C13.5556 10.0668 13.477 10.3087 13.4911 10.5542L13.7189 14.5196C13.7599 15.2333 13.0486 15.75 12.3825 15.4905L8.68162 14.0485C8.45243 13.9592 8.19807 13.9592 7.96889 14.0485L4.268 15.4905C3.60189 15.75 2.89065 15.2333 2.93164 14.5196L3.15939 10.5542C3.1735 10.3087 3.0949 10.0668 2.93915 9.87638L0.424117 6.80221C-0.0285498 6.24891 0.243121 5.41279 0.934559 5.23123L4.77621 4.22248C5.01411 4.16001 5.21989 4.0105 5.35282 3.80355L7.49934 0.461644Z" fill="#4F8FFD"/>
</svg>
